<svg xmlns="http://www.w3.org/2000/svg" viewBox="0 0 349.1 372.72"><defs><style>.cls-1,.cls-3{fill:#fff;}.cls-2{fill:#f0f;}.cls-3{stroke:#f0f;stroke-miterlimit:10;stroke-width:20px;}</style></defs><g id="Calque_2" data-name="Calque 2"><g id="ads"><path class="cls-1" d="M17.84,362.72A7.85,7.85,0,0,1,10,354.88V18a7.84,7.84,0,0,1,7.83-7.83L193.65,10a3.08,3.08,0,0,1,2.16.89l89.35,89.36a3,3,0,0,1,.9,2.16V354.88a7.85,7.85,0,0,1-7.84,7.84Z"/><path class="cls-2" d="M190.77,20l85.29,85.29V352.72H20V20.2L190.77,20m2.88-20h0L17.82.21A17.83,17.83,0,0,0,0,18.05V354.88a17.84,17.84,0,0,0,17.84,17.84H278.22a17.84,17.84,0,0,0,17.84-17.84V102.41a13.06,13.06,0,0,0-3.83-9.23L202.88,3.82A13.09,13.09,0,0,0,193.65,0Z"/><rect class="cls-2" x="53.88" y="172.68" width="295.22" height="140.82" rx="17.84"/><path class="cls-3" d="M194,13.34V84.8a17.84,17.84,0,0,0,17.84,17.84h66.65a3.8,3.8,0,0,0,2.67-6.51L196.3,12.36A1.38,1.38,0,0,0,194,13.34Z"/><path class="cls-1" d="M97.42,207.82A6.67,6.67,0,0,0,96,206.6a13.31,13.31,0,0,0-2-1.06,14.34,14.34,0,0,0-2.45-.76,12.58,12.58,0,0,0-2.77-.29q-3.69,0-5.44,1.39a4.6,4.6,0,0,0-1.76,3.81,3.84,3.84,0,0,0,.9,2.69A6.45,6.45,0,0,0,85.2,214c1.24.42,2.83.85,4.75,1.3a32.12,32.12,0,0,1,5.76,1.75,8.76,8.76,0,0,1,3.73,2.76,7.42,7.42,0,0,1,1.31,4.59,8.4,8.4,0,0,1-.88,4,7.73,7.73,0,0,1-2.45,2.79,10.86,10.86,0,0,1-3.69,1.61,19.54,19.54,0,0,1-4.59.52,22,22,0,0,1-4.75-.52A20.68,20.68,0,0,1,80,231.26a18.81,18.81,0,0,1-3.87-2.47l1.94-3.42a9.94,9.94,0,0,0,1.86,1.5,17.34,17.34,0,0,0,2.62,1.38,18.11,18.11,0,0,0,3.17,1,16.34,16.34,0,0,0,3.51.38,9.7,9.7,0,0,0,5.31-1.23,4,4,0,0,0,1.89-3.61,4,4,0,0,0-1.06-2.87,8,8,0,0,0-3.13-1.79q-2.07-.72-5-1.44a35.17,35.17,0,0,1-5.44-1.77,7.6,7.6,0,0,1-3.31-2.54,6.88,6.88,0,0,1-1.1-4.08,8.75,8.75,0,0,1,1.48-5.16,9.13,9.13,0,0,1,4.1-3.19,15.46,15.46,0,0,1,5.89-1.07,17.22,17.22,0,0,1,4,.45,16.44,16.44,0,0,1,3.49,1.26,15.3,15.3,0,0,1,3,1.93Z"/><path class="cls-1" d="M131.75,201.11v31.95h-4V218.53H110.11v14.53h-4V201.11h4v13.82H127.7V201.11Z"/><path class="cls-1" d="M149.12,201.11h3.42l13.05,31.95h-4.32l-3.58-9.36H143.94l-3.59,9.36H136Zm7.36,19.44-5.65-14.76-5.67,14.76Z"/><path class="cls-1" d="M169.87,233.06V201.11h13.68a8.47,8.47,0,0,1,3.87.88,10,10,0,0,1,3.06,2.34,10.89,10.89,0,0,1,2,3.28,10.08,10.08,0,0,1,.72,3.72,10.75,10.75,0,0,1-.83,4.18,9.76,9.76,0,0,1-2.34,3.38,8.26,8.26,0,0,1-3.53,1.93l7.74,12.24h-4.59l-7.29-11.47h-8.46v11.47Zm4-15.07h9.67a4.68,4.68,0,0,0,2.9-.93,6.16,6.16,0,0,0,1.94-2.45,7.88,7.88,0,0,0,.7-3.28,6.87,6.87,0,0,0-.81-3.31,6.72,6.72,0,0,0-2.12-2.41,5,5,0,0,0-2.88-.9h-9.4Z"/><path class="cls-1" d="M221.12,229.46v3.6H199.43V201.11h21.29v3.6H203.48v10.35h15v3.38h-15v11Z"/><path class="cls-1" d="M78.65,287.06V255.11H92a8.47,8.47,0,0,1,3.87.88,10,10,0,0,1,3.06,2.34,10.92,10.92,0,0,1,2,3.28,10.08,10.08,0,0,1,.72,3.72,11.07,11.07,0,0,1-1.17,5,9.91,9.91,0,0,1-3.29,3.82,8.46,8.46,0,0,1-5,1.47H82.7v11.47Zm4-15.07H92a4.81,4.81,0,0,0,2.9-.9,6,6,0,0,0,1.93-2.43,7.86,7.86,0,0,0,.7-3.33,7.06,7.06,0,0,0-.81-3.4,6.29,6.29,0,0,0-2.11-2.36,5.15,5.15,0,0,0-2.88-.86h-9Z"/><path class="cls-1" d="M106.69,287.06V255.11h13.68a8.47,8.47,0,0,1,3.87.88,10,10,0,0,1,3.06,2.34,10.89,10.89,0,0,1,2,3.28,10.08,10.08,0,0,1,.72,3.72,10.75,10.75,0,0,1-.83,4.18,9.76,9.76,0,0,1-2.34,3.38,8.26,8.26,0,0,1-3.53,1.93l7.74,12.24h-4.59l-7.29-11.47h-8.46v11.47Zm4-15.07h9.67a4.68,4.68,0,0,0,2.9-.93,6.16,6.16,0,0,0,1.94-2.45,7.88,7.88,0,0,0,.7-3.28,6.87,6.87,0,0,0-.81-3.31,6.72,6.72,0,0,0-2.12-2.41,5,5,0,0,0-2.88-.9h-9.4Z"/><path class="cls-1" d="M149.21,287.29a13.68,13.68,0,0,1-6.12-1.35,15.05,15.05,0,0,1-4.75-3.67,17.18,17.18,0,0,1-3.08-5.22,17,17,0,0,1-1.08-6,16.33,16.33,0,0,1,1.15-6.1,17,17,0,0,1,3.19-5.18,15.69,15.69,0,0,1,4.8-3.6,13.61,13.61,0,0,1,6-1.32,13.31,13.31,0,0,1,6.12,1.39,15.11,15.11,0,0,1,4.73,3.74,17.57,17.57,0,0,1,3.06,5.22A16.82,16.82,0,0,1,160,282.4,15.12,15.12,0,0,1,155.2,286,13.78,13.78,0,0,1,149.21,287.29Zm-10.93-16.2a14.39,14.39,0,0,0,.78,4.7,13.17,13.17,0,0,0,2.23,4,10.8,10.8,0,0,0,3.47,2.79,9.74,9.74,0,0,0,4.5,1,9.6,9.6,0,0,0,4.59-1.08,10.86,10.86,0,0,0,3.44-2.88,13.36,13.36,0,0,0,2.16-4.05,14.53,14.53,0,0,0,.74-4.54,13.94,13.94,0,0,0-.79-4.68,12.84,12.84,0,0,0-2.25-4,10.56,10.56,0,0,0-3.46-2.79,9.62,9.62,0,0,0-4.43-1,9.82,9.82,0,0,0-4.59,1.05,10.7,10.7,0,0,0-3.45,2.86,13.65,13.65,0,0,0-2.18,4A14,14,0,0,0,138.28,271.09Z"/><path class="cls-1" d="M169.91,287.06V255.11H191v3.6H174v10.67h14.36v3.37H174v14.31Z"/><path class="cls-1" d="M196.14,287.06V255.11h4.05v31.95Z"/><path class="cls-1" d="M207.84,287.06V255.11h4v28.35h17.83v3.6Z"/><path class="cls-1" d="M255.81,283.46v3.6H234.13V255.11h21.28v3.6H238.18v10.35h15v3.38h-15v11Z"/></g></g></svg>