<svg xmlns="http://www.w3.org/2000/svg" viewBox="0 0 73.13 73.13"><defs><style>.cls-1{fill:#f0f;}.cls-2{fill:#fff;}</style></defs><g id="Calque_2" data-name="Calque 2"><g id="ads"><rect class="cls-1" width="73.13" height="73.13" rx="9.92"/><path class="cls-2" d="M60.83,20.69a20.33,20.33,0,0,1-3.18.63,12.62,12.62,0,0,0,2.05-1.66,10.75,10.75,0,0,0,1.61-2.07,7.64,7.64,0,0,0,1.06-2.41l-.17.08c-.64.34-1.27.69-1.92,1a21.57,21.57,0,0,1-4.21,1.44c-.22.06-.45.1-.68.15a.17.17,0,0,1-.18-.05c-.19-.2-.37-.39-.57-.57a11.33,11.33,0,0,0-5.18-2.65,10.57,10.57,0,0,0-1.78-.23c-.45,0-.91,0-1.36,0a8.65,8.65,0,0,0-1.14.13,10.85,10.85,0,0,0-3.42,1.18,11.28,11.28,0,0,0-2.85,2.19,11.49,11.49,0,0,0-1.36,1.76,11.3,11.3,0,0,0-1.43,3.53,12.36,12.36,0,0,0-.26,2.18,6.44,6.44,0,0,0,0,1c.06.51.14,1,.21,1.51l0,.23a.67.67,0,0,1-.42,0c-.35,0-.7-.05-1-.09-.66-.07-1.32-.15-2-.25A28.35,28.35,0,0,1,28,26.59a31.35,31.35,0,0,1-5.07-2.15,26.36,26.36,0,0,1-2.61-1.55c-.66-.45-1.32-.91-2-1.39a22.75,22.75,0,0,1-2.3-2c-.47-.44-.94-.88-1.38-1.35s-1-1.12-1.49-1.69l-.12-.1a11.08,11.08,0,0,0-1.49,6.33,11.25,11.25,0,0,0,4.82,8.62A11.46,11.46,0,0,1,11.46,30a10.93,10.93,0,0,0,2.41,7.12,11.33,11.33,0,0,0,6.38,4,5.6,5.6,0,0,1-1.2.26c-.4.05-.81.1-1.22.11a9.94,9.94,0,0,1-1.22,0c-.4,0-.8-.1-1.25-.15A10.86,10.86,0,0,0,18,45.68a11.19,11.19,0,0,0,7.76,3.45A21.73,21.73,0,0,1,21,52,22.66,22.66,0,0,1,9.23,53.72l.19.15c.8.46,1.58.94,2.39,1.37A29.06,29.06,0,0,0,15,56.69a32.14,32.14,0,0,0,6.73,1.76c.86.12,1.71.22,2.57.27h.4c.23,0,.46.05.69.05h2.25l.68,0,.86,0c.55,0,1.11-.1,1.66-.18s1.38-.2,2.07-.32c.89-.16,1.78-.38,2.65-.62a28.83,28.83,0,0,0,2.89-1A29.22,29.22,0,0,0,42,54.94a26.38,26.38,0,0,0,2.63-1.65c.62-.43,1.22-.87,1.8-1.35s1.3-1.12,1.94-1.71c.37-.34.72-.72,1.07-1.09s.75-.82,1.11-1.24a31.24,31.24,0,0,0,2.68-3.66,34.14,34.14,0,0,0,2.09-3.86,31.08,31.08,0,0,0,1.18-2.94,31.66,31.66,0,0,0,1.27-4.7q.2-1,.33-2.07c.08-.61.12-1.23.17-1.85,0-.13,0-.26,0-.4s0-.47,0-.7,0-.73,0-1.1,0-.65,0-1a.32.32,0,0,1,.14-.31,21.12,21.12,0,0,0,1.94-1.6q.77-.7,1.47-1.47a23.13,23.13,0,0,0,1.75-2.2l.27-.41,0,0A23.9,23.9,0,0,1,60.83,20.69Z"/></g></g></svg>