<svg xmlns="http://www.w3.org/2000/svg" viewBox="0 0 349.1 372.72"><defs><style>.cls-1,.cls-3{fill:#fff;}.cls-2{fill:#f0f;}.cls-3{stroke:#f0f;stroke-miterlimit:10;stroke-width:20px;}</style></defs><g id="Calque_2" data-name="Calque 2"><g id="ads"><path class="cls-1" d="M17.84,362.72A7.85,7.85,0,0,1,10,354.88V18.05a7.84,7.84,0,0,1,7.83-7.84L193.65,10a3.12,3.12,0,0,1,2.16.89l89.35,89.36a3.07,3.07,0,0,1,.9,2.16V354.88a7.85,7.85,0,0,1-7.84,7.84Z"/><path class="cls-2" d="M190.77,20l85.29,85.29V352.72H20V20.2L190.77,20m2.88-20h0L17.82.21A17.83,17.83,0,0,0,0,18.05V354.88a17.84,17.84,0,0,0,17.84,17.84H278.22a17.84,17.84,0,0,0,17.84-17.84V102.41a13.06,13.06,0,0,0-3.83-9.23L202.88,3.82A13.09,13.09,0,0,0,193.65,0Z"/><rect class="cls-2" x="53.88" y="172.68" width="295.22" height="140.82" rx="17.84"/><path class="cls-3" d="M194,13.34V84.8a17.84,17.84,0,0,0,17.84,17.84h66.65a3.8,3.8,0,0,0,2.67-6.51L196.3,12.36A1.38,1.38,0,0,0,194,13.34Z"/><path class="cls-1" d="M71.78,202.66a13.93,13.93,0,0,1,.83-4.72,13.64,13.64,0,0,1,2.44-4.22,11.81,11.81,0,0,1,3.94-3,12,12,0,0,1,5.29-1.13,11,11,0,0,1,6,1.61,10.09,10.09,0,0,1,3.73,4.12L91.42,197a7.25,7.25,0,0,0-2-2.65A7.51,7.51,0,0,0,86.86,193a9.74,9.74,0,0,0-2.72-.4,8.18,8.18,0,0,0-3.87.88,8.55,8.55,0,0,0-2.83,2.37,10.34,10.34,0,0,0-1.72,3.31,12.34,12.34,0,0,0-.58,3.68,11.37,11.37,0,0,0,.69,3.93,10.76,10.76,0,0,0,1.91,3.33,9.27,9.27,0,0,0,2.88,2.29,7.83,7.83,0,0,0,3.63.85,8.87,8.87,0,0,0,2.81-.48,8.59,8.59,0,0,0,2.7-1.5,7.23,7.23,0,0,0,2-2.64l2.77,1.51A8.28,8.28,0,0,1,92,213.42a12.14,12.14,0,0,1-3.8,2.08,13.11,13.11,0,0,1-4.12.7,10.64,10.64,0,0,1-5-1.17,12.62,12.62,0,0,1-3.9-3.1,14.86,14.86,0,0,1-2.56-4.37A14,14,0,0,1,71.78,202.66Z"/><path class="cls-1" d="M98.71,216V189.74H102v23.31H116.7v3Z"/><path class="cls-1" d="M120.32,216V189.74h3.33V216Z"/><path class="cls-1" d="M128.24,202.66a13.87,13.87,0,0,1,3.27-8.94,11.92,11.92,0,0,1,3.94-3,12.06,12.06,0,0,1,5.3-1.13,11,11,0,0,1,6,1.61,10.09,10.09,0,0,1,3.73,4.12L147.89,197a7.21,7.21,0,0,0-4.57-4,9.69,9.69,0,0,0-2.72-.4,8.18,8.18,0,0,0-3.87.88,8.55,8.55,0,0,0-2.83,2.37,10.55,10.55,0,0,0-1.72,3.31,12.33,12.33,0,0,0-.57,3.68,11.36,11.36,0,0,0,.68,3.93,11,11,0,0,0,1.91,3.33,9.27,9.27,0,0,0,2.88,2.29,7.83,7.83,0,0,0,3.63.85,8.87,8.87,0,0,0,2.81-.48,8.59,8.59,0,0,0,2.7-1.5,7.12,7.12,0,0,0,2-2.64l2.77,1.51a8.28,8.28,0,0,1-2.51,3.33,12.2,12.2,0,0,1-3.79,2.08,13.17,13.17,0,0,1-4.13.7,10.64,10.64,0,0,1-5-1.17,12.74,12.74,0,0,1-3.9-3.1,14.62,14.62,0,0,1-2.55-4.37A13.79,13.79,0,0,1,128.24,202.66Z"/><path class="cls-1" d="M155.17,216V189.74h3.33v14.53l13.55-14.56h3.59L165.09,201.3,176.23,216h-3.74L163,203.3,158.5,208v8Z"/><path class="cls-1" d="M206.05,192.7H197V216h-3.33V192.7h-9.07v-3h21.46Z"/><path class="cls-1" d="M219.7,216.2a11.22,11.22,0,0,1-5-1.11,12.12,12.12,0,0,1-3.9-3,14.11,14.11,0,0,1-3.43-9.19,13.57,13.57,0,0,1,.95-5,14.06,14.06,0,0,1,2.62-4.25,12.73,12.73,0,0,1,4-3,11.66,11.66,0,0,1,9.95,0,12.36,12.36,0,0,1,3.88,3.08,14.26,14.26,0,0,1,2.52,4.29,13.81,13.81,0,0,1,0,9.86,13.36,13.36,0,0,1-2.61,4.25,12.22,12.22,0,0,1-3.94,2.94A11.22,11.22,0,0,1,219.7,216.2Zm-9-13.32a11.72,11.72,0,0,0,.65,3.86,10.72,10.72,0,0,0,1.83,3.32,8.93,8.93,0,0,0,2.85,2.29,8,8,0,0,0,3.7.85,7.78,7.78,0,0,0,3.77-.89,8.75,8.75,0,0,0,2.83-2.37,10.67,10.67,0,0,0,1.78-3.33,11.72,11.72,0,0,0,0-7.58,10.74,10.74,0,0,0-1.85-3.31,8.62,8.62,0,0,0-2.85-2.29,7.87,7.87,0,0,0-3.64-.84,8,8,0,0,0-3.77.87,8.71,8.71,0,0,0-2.84,2.35,11.54,11.54,0,0,0-2.42,7.07Z"/><path class="cls-1" d="M73.48,256V229.74h9.1a13.17,13.17,0,0,1,7,1.76,11,11,0,0,1,4.24,4.74,15.33,15.33,0,0,1,1.4,6.6,14.85,14.85,0,0,1-1.55,7,11.25,11.25,0,0,1-4.4,4.59A13.42,13.42,0,0,1,82.58,256Zm18.43-13.17a12.05,12.05,0,0,0-1.1-5.25A8.3,8.3,0,0,0,87.65,234a9.41,9.41,0,0,0-5.07-1.3H76.81v20.35h5.77a9.18,9.18,0,0,0,5.11-1.35A8.55,8.55,0,0,0,90.83,248,12.12,12.12,0,0,0,91.91,242.84Z"/><path class="cls-1" d="M100,256V229.74h3.33V256Z"/><path class="cls-1" d="M125,235.26a5.48,5.48,0,0,0-1.18-1,10.89,10.89,0,0,0-1.67-.87,11.82,11.82,0,0,0-2-.63,10.62,10.62,0,0,0-2.28-.24,7.2,7.2,0,0,0-4.48,1.14A3.79,3.79,0,0,0,112,236.8a3.17,3.17,0,0,0,.74,2.21,5.37,5.37,0,0,0,2.27,1.33c1,.34,2.33.7,3.91,1.07a25.83,25.83,0,0,1,4.73,1.44,7.33,7.33,0,0,1,3.08,2.26,6.16,6.16,0,0,1,1.07,3.78,7,7,0,0,1-.72,3.27,6.43,6.43,0,0,1-2,2.29,9.09,9.09,0,0,1-3,1.33,16.09,16.09,0,0,1-3.78.42,17.46,17.46,0,0,1-3.9-.43,16.37,16.37,0,0,1-3.61-1.24,15.72,15.72,0,0,1-3.18-2l1.59-2.81a8.22,8.22,0,0,0,1.54,1.24,15.12,15.12,0,0,0,4.75,2,13.19,13.19,0,0,0,2.89.31,8,8,0,0,0,4.36-1,3.32,3.32,0,0,0,1.56-3,3.23,3.23,0,0,0-.87-2.36,6.57,6.57,0,0,0-2.57-1.47,42.94,42.94,0,0,0-4.15-1.18,29.51,29.51,0,0,1-4.48-1.46,6.33,6.33,0,0,1-2.72-2.09,5.72,5.72,0,0,1-.9-3.35,7.16,7.16,0,0,1,1.22-4.25,7.53,7.53,0,0,1,3.37-2.62,12.58,12.58,0,0,1,4.84-.88,13.71,13.71,0,0,1,6.18,1.4,12.69,12.69,0,0,1,2.44,1.6Z"/><path class="cls-1" d="M130.42,242.66a13.93,13.93,0,0,1,.83-4.72,13.67,13.67,0,0,1,2.45-4.22,11.72,11.72,0,0,1,3.94-3,12,12,0,0,1,5.29-1.13,11,11,0,0,1,6,1.61,10.12,10.12,0,0,1,3.74,4.12L150.07,237a7.21,7.21,0,0,0-4.57-4,9.69,9.69,0,0,0-2.72-.4,8.21,8.21,0,0,0-3.87.88,8.65,8.65,0,0,0-2.83,2.37,10.55,10.55,0,0,0-1.72,3.31,12.33,12.33,0,0,0-.57,3.68,11.6,11.6,0,0,0,.68,3.93,11.17,11.17,0,0,0,1.91,3.33,9.3,9.3,0,0,0,2.89,2.29,7.78,7.78,0,0,0,3.62.85,8.87,8.87,0,0,0,2.81-.48,8.49,8.49,0,0,0,2.7-1.5,7.12,7.12,0,0,0,2-2.64l2.78,1.51a8.3,8.3,0,0,1-2.52,3.33,12.09,12.09,0,0,1-3.79,2.08,13.12,13.12,0,0,1-4.13.7,10.64,10.64,0,0,1-5-1.17,12.74,12.74,0,0,1-3.9-3.1,14.62,14.62,0,0,1-2.55-4.37A13.79,13.79,0,0,1,130.42,242.66Z"/><path class="cls-1" d="M167.72,256.2a11.22,11.22,0,0,1-5-1.11,12.27,12.27,0,0,1-3.91-3,14.18,14.18,0,0,1-3.42-9.19,13.56,13.56,0,0,1,.94-5,14.09,14.09,0,0,1,2.63-4.25,12.69,12.69,0,0,1,3.94-3,11.12,11.12,0,0,1,4.92-1.09,11,11,0,0,1,5,1.14,12.4,12.4,0,0,1,3.89,3.08,14.44,14.44,0,0,1,2.51,4.29,13.52,13.52,0,0,1,.89,4.85,13.87,13.87,0,0,1-.92,5,13.72,13.72,0,0,1-2.61,4.25,12.33,12.33,0,0,1-3.94,2.94A11.28,11.28,0,0,1,167.72,256.2Zm-9-13.32a11.71,11.71,0,0,0,.64,3.86,11,11,0,0,0,1.84,3.32,8.89,8.89,0,0,0,2.84,2.29,8,8,0,0,0,3.7.85,7.82,7.82,0,0,0,3.78-.89,8.86,8.86,0,0,0,2.83-2.37,10.67,10.67,0,0,0,1.78-3.33,12,12,0,0,0,.61-3.73,11.61,11.61,0,0,0-.65-3.85,10.74,10.74,0,0,0-1.85-3.31,8.62,8.62,0,0,0-2.85-2.29,7.91,7.91,0,0,0-3.65-.84,8,8,0,0,0-3.77.87,8.67,8.67,0,0,0-2.83,2.35,11.16,11.16,0,0,0-1.79,3.31A11.5,11.5,0,0,0,158.73,242.88Z"/><path class="cls-1" d="M184.48,229.74l8.69,22.09,8.66-22.09h3.52L194.69,256h-3L181,229.74Z"/><path class="cls-1" d="M226.73,253.05v3H208.9V229.74h17.5v3H212.23v8.51h12.32V244H212.23v9.06Z"/><path class="cls-1" d="M231.28,256V229.74h11.25a7,7,0,0,1,3.18.72,8.51,8.51,0,0,1,2.52,1.93,8.94,8.94,0,0,1,1.66,2.7,8.16,8.16,0,0,1,.6,3,8.7,8.7,0,0,1-.69,3.44,7.91,7.91,0,0,1-1.92,2.78A6.91,6.91,0,0,1,245,246L251.34,256h-3.78l-6-9.43h-7V256Zm3.33-12.39h8a3.83,3.83,0,0,0,2.38-.76,5.13,5.13,0,0,0,1.6-2,6.44,6.44,0,0,0,.57-2.7,5.73,5.73,0,0,0-2.41-4.7,4.08,4.08,0,0,0-2.36-.74h-7.74Z"/><path class="cls-1" d="M74.48,269.74l8,13.69,8-13.69h3.63l-10,16.69V296H80.77v-9.65l-10-16.62Z"/><path class="cls-1" d="M106.67,296.2a11.22,11.22,0,0,1-5-1.11,12.27,12.27,0,0,1-3.91-3,14.18,14.18,0,0,1-3.42-9.19,13.57,13.57,0,0,1,1-5,13.87,13.87,0,0,1,2.62-4.25,12.69,12.69,0,0,1,3.94-3,11.68,11.68,0,0,1,10,.05,12.48,12.48,0,0,1,3.88,3.08,14.47,14.47,0,0,1,2.52,4.29,13.81,13.81,0,0,1-2.65,14.11,12.22,12.22,0,0,1-3.94,2.94A11.22,11.22,0,0,1,106.67,296.2Zm-9-13.32a11.46,11.46,0,0,0,.65,3.86,10.72,10.72,0,0,0,1.83,3.32,8.93,8.93,0,0,0,2.85,2.29,8,8,0,0,0,3.7.85,7.8,7.8,0,0,0,3.77-.89,8.86,8.86,0,0,0,2.83-2.37,10.67,10.67,0,0,0,1.78-3.33,12,12,0,0,0,.61-3.73,11.61,11.61,0,0,0-.65-3.85,10.74,10.74,0,0,0-1.85-3.31,8.62,8.62,0,0,0-2.85-2.29,7.9,7.9,0,0,0-3.64-.84,8,8,0,0,0-3.78.87,8.67,8.67,0,0,0-2.83,2.35,11.16,11.16,0,0,0-1.79,3.31A11.5,11.5,0,0,0,97.68,282.88Z"/><path class="cls-1" d="M134.53,296.2a11.67,11.67,0,0,1-5.29-1.09,9.19,9.19,0,0,1-3.44-3,13.05,13.05,0,0,1-1.89-4.24,20.31,20.31,0,0,1-.59-4.88V269.74h3.33V283a17.94,17.94,0,0,0,.39,3.75,10.43,10.43,0,0,0,1.27,3.28,6.62,6.62,0,0,0,2.41,2.29,8.78,8.78,0,0,0,7.58,0,6.5,6.5,0,0,0,2.41-2.33,10.48,10.48,0,0,0,1.28-3.27,18.29,18.29,0,0,0,.38-3.7V269.74h3.33V283a20.2,20.2,0,0,1-.61,5.05,11.92,11.92,0,0,1-1.94,4.2,9.42,9.42,0,0,1-3.46,2.86A11.44,11.44,0,0,1,134.53,296.2Z"/><path class="cls-1" d="M151.62,296V269.74h11.25a7,7,0,0,1,3.18.72,8.51,8.51,0,0,1,2.52,1.93,9.18,9.18,0,0,1,1.67,2.7,8.35,8.35,0,0,1,.59,3.05,8.7,8.7,0,0,1-.69,3.44,7.91,7.91,0,0,1-1.92,2.78,6.91,6.91,0,0,1-2.91,1.59L171.68,296H167.9l-6-9.43h-7V296ZM155,283.62h8a3.88,3.88,0,0,0,2.39-.76,5.2,5.2,0,0,0,1.59-2,6.44,6.44,0,0,0,.57-2.7,5.75,5.75,0,0,0-2.4-4.7,4.13,4.13,0,0,0-2.37-.74H155Z"/><path class="cls-1" d="M185.29,296V269.74h11a7.05,7.05,0,0,1,3.19.72,8.47,8.47,0,0,1,2.51,1.93,9,9,0,0,1,1.67,2.7,8.35,8.35,0,0,1,.59,3.05,9.1,9.1,0,0,1-1,4.09,8.17,8.17,0,0,1-2.7,3.15,7,7,0,0,1-4.07,1.2h-7.85V296Zm3.33-12.39h7.66a4,4,0,0,0,2.39-.74,4.89,4.89,0,0,0,1.59-2,6.56,6.56,0,0,0,.57-2.74,5.86,5.86,0,0,0-.66-2.79,5.22,5.22,0,0,0-1.74-1.94,4.25,4.25,0,0,0-2.37-.71h-7.44Z"/><path class="cls-1" d="M208.34,296V269.74h11.25a7,7,0,0,1,3.18.72,8.51,8.51,0,0,1,2.52,1.93,8.94,8.94,0,0,1,1.66,2.7,8.16,8.16,0,0,1,.6,3.05,8.7,8.7,0,0,1-.69,3.44,7.91,7.91,0,0,1-1.92,2.78A6.91,6.91,0,0,1,222,286L228.4,296h-3.78l-6-9.43h-7V296Zm3.33-12.39h8a3.88,3.88,0,0,0,2.39-.76,5.2,5.2,0,0,0,1.59-2,6.44,6.44,0,0,0,.57-2.7,5.75,5.75,0,0,0-2.4-4.7,4.13,4.13,0,0,0-2.37-.74h-7.74Z"/><path class="cls-1" d="M243.31,296.2a11.22,11.22,0,0,1-5-1.11,12.27,12.27,0,0,1-3.91-3,14.18,14.18,0,0,1-3.42-9.19,13.77,13.77,0,0,1,.94-5,14.09,14.09,0,0,1,2.63-4.25,12.69,12.69,0,0,1,3.94-3,11.15,11.15,0,0,1,4.92-1.09,11,11,0,0,1,5,1.14,12.4,12.4,0,0,1,3.89,3.08,14.69,14.69,0,0,1,2.52,4.29,13.81,13.81,0,0,1-2.65,14.11,12.33,12.33,0,0,1-3.94,2.94A11.28,11.28,0,0,1,243.31,296.2Zm-9-13.32a11.71,11.71,0,0,0,.64,3.86,11,11,0,0,0,1.84,3.32,8.93,8.93,0,0,0,2.85,2.29,8,8,0,0,0,3.7.85,7.8,7.8,0,0,0,3.77-.89,8.86,8.86,0,0,0,2.83-2.37,10.67,10.67,0,0,0,1.78-3.33,12,12,0,0,0,.61-3.73,11.61,11.61,0,0,0-.65-3.85,10.74,10.74,0,0,0-1.85-3.31,8.62,8.62,0,0,0-2.85-2.29,7.9,7.9,0,0,0-3.64-.84,8,8,0,0,0-3.78.87,8.67,8.67,0,0,0-2.83,2.35,11.16,11.16,0,0,0-1.79,3.31A11.5,11.5,0,0,0,234.32,282.88Z"/><path class="cls-1" d="M260.33,296V269.74h17.35v3h-14v8.77h11.8v2.78h-11.8V296Z"/><path class="cls-1" d="M281.9,296V269.74h3.33V296Z"/><path class="cls-1" d="M291.52,296V269.74h3.33v23.31H309.5v3Z"/><path class="cls-1" d="M331,293.05v3H313.13V269.74h17.5v3H316.46v8.51h12.32V284H316.46v9.06Z"/></g></g></svg>