<svg xmlns="http://www.w3.org/2000/svg" viewBox="0 0 331.1 372.72"><defs><style>.cls-1,.cls-3{fill:#fff;}.cls-2{fill:#f0f;}.cls-3{stroke:#f0f;stroke-miterlimit:10;stroke-width:20px;}</style></defs><g id="Calque_2" data-name="Calque 2"><g id="ads"><path class="cls-1" d="M17.84,362.72A7.85,7.85,0,0,1,10,354.88V18.05a7.84,7.84,0,0,1,7.83-7.84L193.65,10a3.12,3.12,0,0,1,2.16.89l89.35,89.36a3.07,3.07,0,0,1,.9,2.16V354.88a7.85,7.85,0,0,1-7.84,7.84Z"/><path class="cls-2" d="M190.77,20l85.29,85.29V352.72H20V20.2L190.77,20m2.88-20h0L17.82.21A17.83,17.83,0,0,0,0,18.05V354.88a17.84,17.84,0,0,0,17.84,17.84H278.22a17.84,17.84,0,0,0,17.84-17.84V102.41a13.06,13.06,0,0,0-3.83-9.23L202.88,3.82A13.09,13.09,0,0,0,193.65,0Z"/><rect class="cls-2" x="83.34" y="172.68" width="247.75" height="140.82" rx="17.84"/><path class="cls-3" d="M194,13.34V84.8a17.84,17.84,0,0,0,17.84,17.84h66.65a3.8,3.8,0,0,0,2.67-6.51L196.3,12.36A1.38,1.38,0,0,0,194,13.34Z"/><path class="cls-1" d="M112.47,216.38a9.67,9.67,0,0,1-4-.79,9.25,9.25,0,0,1-3.11-2.18,10,10,0,0,1-2-3.2,10.58,10.58,0,0,1,.5-8.77,9.31,9.31,0,0,1,3.44-3.58,9.72,9.72,0,0,1,5.15-1.35,9.48,9.48,0,0,1,5,1.28,8,8,0,0,1,3.17,3.42l-3.18,1a5.39,5.39,0,0,0-2.08-2.13,6.2,6.2,0,0,0-6.19.16,6.53,6.53,0,0,0-2.32,2.51,8.15,8.15,0,0,0,0,7.29,7,7,0,0,0,2.33,2.58,6,6,0,0,0,5.44.54,6.07,6.07,0,0,0,1.85-1.09,3.49,3.49,0,0,0,1.09-1.5l3.19,1a7.12,7.12,0,0,1-1.8,2.49,8.69,8.69,0,0,1-2.85,1.72A10,10,0,0,1,112.47,216.38Z"/><path class="cls-1" d="M124.5,189h3.25v22.12c0,1.06.15,1.72.45,2a1.58,1.58,0,0,0,1.07.37,6.45,6.45,0,0,0,1.48-.17,8.7,8.7,0,0,0,1.19-.35l.51,2.67a10.84,10.84,0,0,1-1.92.55,9.94,9.94,0,0,1-2,.22,4.09,4.09,0,0,1-3-1.07,4,4,0,0,1-1.09-3Z"/><path class="cls-1" d="M135,193.07V189h3.25v4.07ZM135,216V196.7h3.25V216Z"/><path class="cls-1" d="M152.06,216.38a9.67,9.67,0,0,1-4-.79,9.25,9.25,0,0,1-3.11-2.18,10,10,0,0,1-2-3.2,10.58,10.58,0,0,1,.5-8.77,9.31,9.31,0,0,1,3.44-3.58,9.72,9.72,0,0,1,5.15-1.35,9.48,9.48,0,0,1,5,1.28,8,8,0,0,1,3.17,3.42l-3.19,1a5.3,5.3,0,0,0-2.07-2.13,5.92,5.92,0,0,0-3-.75,6,6,0,0,0-3.24.91,6.59,6.59,0,0,0-2.31,2.51,8.15,8.15,0,0,0,0,7.29,7,7,0,0,0,2.33,2.58,6,6,0,0,0,5.44.54,6.19,6.19,0,0,0,1.85-1.09,3.57,3.57,0,0,0,1.09-1.5l3.18,1a7,7,0,0,1-1.79,2.49,8.69,8.69,0,0,1-2.85,1.72A10,10,0,0,1,152.06,216.38Z"/><path class="cls-1" d="M177.63,216l-6.7-9.36-3.66,3.43V216H164V189h3.26v17.69l10-9.88h3.51l-7.69,8L181.14,216Z"/><path class="cls-1" d="M113.92,255.16q-.4.19-1.11.48a10.45,10.45,0,0,1-1.63.52,8.29,8.29,0,0,1-2,.22A5.54,5.54,0,0,1,107,256a3.59,3.59,0,0,1-1.6-1.33,4.15,4.15,0,0,1-.59-2.28v-13h-2.62v-2.55h2.62v-6.44h3.26v6.44h4.33v2.55h-4.33v12a2.06,2.06,0,0,0,.7,1.54,2.32,2.32,0,0,0,1.48.5,4.52,4.52,0,0,0,1.78-.34,10.27,10.27,0,0,0,1.07-.48Z"/><path class="cls-1" d="M125.13,256.38a9.56,9.56,0,0,1-4-.79,9.28,9.28,0,0,1-3.07-2.16,9.74,9.74,0,0,1-2-3.18,10.66,10.66,0,0,1,0-7.6,9.74,9.74,0,0,1,2-3.18,9.33,9.33,0,0,1,3.09-2.17,9.68,9.68,0,0,1,13,5.35,10.52,10.52,0,0,1,0,7.6,9.88,9.88,0,0,1-2,3.18,9.36,9.36,0,0,1-3.09,2.16A9.75,9.75,0,0,1,125.13,256.38Zm-6.4-9.88a7.42,7.42,0,0,0,.87,3.59,6.79,6.79,0,0,0,2.31,2.55,5.8,5.8,0,0,0,3.22.93,5.87,5.87,0,0,0,3.24-.95A7,7,0,0,0,130.7,250a7.55,7.55,0,0,0,.87-3.61,7.45,7.45,0,0,0-.87-3.59,6.94,6.94,0,0,0-2.33-2.56,5.79,5.79,0,0,0-3.24-.95,5.6,5.6,0,0,0-3.22,1,7,7,0,0,0-2.31,2.58A7.48,7.48,0,0,0,118.73,246.5Z"/><path class="cls-1" d="M147,246.47a10.91,10.91,0,0,1,1.13-5,9.42,9.42,0,0,1,3.1-3.62,7.87,7.87,0,0,1,4.54-1.36,7.4,7.4,0,0,1,4.18,1.23,9.19,9.19,0,0,1,2.88,2.95V229h3.26v23.31a1.29,1.29,0,0,0,.24.87,1.12,1.12,0,0,0,.8.32V256a9.69,9.69,0,0,1-1.45.15,2.41,2.41,0,0,1-1.68-.66,2,2,0,0,1-.72-1.48v-1.63a8.35,8.35,0,0,1-3.07,2.92,8.08,8.08,0,0,1-4,1.07,8.5,8.5,0,0,1-3.68-.79,8.81,8.81,0,0,1-2.92-2.18,10.31,10.31,0,0,1-1.93-3.18A10.53,10.53,0,0,1,147,246.47Zm15.83,2.82v-5.5a5.93,5.93,0,0,0-1.44-2.25,8.17,8.17,0,0,0-2.24-1.61,5.57,5.57,0,0,0-2.46-.6,5.64,5.64,0,0,0-2.61.6,6.49,6.49,0,0,0-2,1.61,7.32,7.32,0,0,0-1.27,2.29,8,8,0,0,0-.45,2.67,7.41,7.41,0,0,0,.5,2.71,7.24,7.24,0,0,0,1.41,2.27,6.38,6.38,0,0,0,2.11,1.54,6.14,6.14,0,0,0,2.61.55,5.54,5.54,0,0,0,1.83-.33,7.37,7.37,0,0,0,1.79-.91A6.15,6.15,0,0,0,162,251,4.18,4.18,0,0,0,162.79,249.29Z"/><path class="cls-1" d="M171.49,233.07V229h3.25v4.07Zm0,22.94V236.7h3.25V256Z"/><path class="cls-1" d="M186.62,256.38a12.66,12.66,0,0,1-4.51-.79,9.63,9.63,0,0,1-3.63-2.39l1.26-2.29a11.11,11.11,0,0,0,3.33,2.22,9.14,9.14,0,0,0,3.4.66,6.32,6.32,0,0,0,3.26-.75,2.4,2.4,0,0,0,1.26-2.2,1.9,1.9,0,0,0-.65-1.58,5.38,5.38,0,0,0-1.83-.86c-.79-.24-1.73-.5-2.81-.79a22.91,22.91,0,0,1-3.37-1.25,5.23,5.23,0,0,1-2.07-1.66,4.19,4.19,0,0,1-.71-2.49,5,5,0,0,1,1-3.11,6,6,0,0,1,2.64-1.92,10.22,10.22,0,0,1,3.83-.67,10.91,10.91,0,0,1,3.89.67,8.27,8.27,0,0,1,3,2l-1.48,2.26a7.5,7.5,0,0,0-2.51-1.76,8,8,0,0,0-3.07-.57,8.17,8.17,0,0,0-2,.24,3.39,3.39,0,0,0-1.59.84,2.25,2.25,0,0,0-.63,1.71,2,2,0,0,0,.5,1.44,3.82,3.82,0,0,0,1.48.9c.66.25,1.45.52,2.39.81,1.46.42,2.72.83,3.79,1.25a6.26,6.26,0,0,1,2.5,1.61,4,4,0,0,1,.89,2.75,5,5,0,0,1-2.07,4.24A9,9,0,0,1,186.62,256.38Z"/><path class="cls-1" d="M206.6,256.38a9.75,9.75,0,0,1-4-.79,9.31,9.31,0,0,1-3.1-2.18,10,10,0,0,1-2-3.2,10.58,10.58,0,0,1,.5-8.77,9.24,9.24,0,0,1,3.44-3.58,9.69,9.69,0,0,1,5.14-1.35,9.51,9.51,0,0,1,5,1.28,8,8,0,0,1,3.16,3.42l-3.18,1a5.3,5.3,0,0,0-2.07-2.13,6.22,6.22,0,0,0-6.2.16,6.59,6.59,0,0,0-2.31,2.51,8.15,8.15,0,0,0,0,7.29,6.92,6.92,0,0,0,2.33,2.58,5.83,5.83,0,0,0,3.24.95,5.89,5.89,0,0,0,2.2-.41,6.19,6.19,0,0,0,1.85-1.09,3.57,3.57,0,0,0,1.09-1.5l3.18,1a7,7,0,0,1-1.79,2.49,8.69,8.69,0,0,1-2.85,1.72A10,10,0,0,1,206.6,256.38Z"/><path class="cls-1" d="M226.8,256.38a9.62,9.62,0,0,1-4-.79,9.39,9.39,0,0,1-3.07-2.16,9.91,9.91,0,0,1-2-3.18,10.66,10.66,0,0,1,0-7.6,9.91,9.91,0,0,1,2-3.18,9.43,9.43,0,0,1,3.09-2.17,10.27,10.27,0,0,1,7.9,0,9.67,9.67,0,0,1,5.11,5.35,10.66,10.66,0,0,1,0,7.6,9.91,9.91,0,0,1-2,3.18,9.16,9.16,0,0,1-3.09,2.16A9.72,9.72,0,0,1,226.8,256.38Zm-6.4-9.88a7.42,7.42,0,0,0,.87,3.59,6.79,6.79,0,0,0,2.31,2.55,6,6,0,0,0,6.46,0,7,7,0,0,0,2.33-2.58,7.55,7.55,0,0,0,.87-3.61,7.45,7.45,0,0,0-.87-3.59,6.94,6.94,0,0,0-2.33-2.56,5.75,5.75,0,0,0-3.24-.95,5.63,5.63,0,0,0-3.22,1,7,7,0,0,0-2.31,2.58A7.48,7.48,0,0,0,220.4,246.5Z"/><path class="cls-1" d="M245.41,256l-7.58-19.2h3.4l6.07,16.11,6.07-16.11h3.18L249,256Z"/><path class="cls-1" d="M267.69,256.38a9.72,9.72,0,0,1-4-.79,9.45,9.45,0,0,1-3.11-2.16,10,10,0,0,1-2-3.18,10.18,10.18,0,0,1-.72-3.82,10,10,0,0,1,1.25-5,9.67,9.67,0,0,1,8.62-5,9.26,9.26,0,0,1,5.09,1.38,9.7,9.7,0,0,1,3.37,3.6,10,10,0,0,1,1.2,4.8c0,.25,0,.49,0,.72a4.55,4.55,0,0,1-.05.53h-16a7.15,7.15,0,0,0,1,3.31,6.71,6.71,0,0,0,2.35,2.27,6.16,6.16,0,0,0,3.11.82,6.65,6.65,0,0,0,3.35-.89,4.7,4.7,0,0,0,2.16-2.33l2.81.78a7.4,7.4,0,0,1-1.87,2.52,8.87,8.87,0,0,1-2.92,1.73A10.31,10.31,0,0,1,267.69,256.38Zm-6.51-11.1h13.17a6.94,6.94,0,0,0-1.08-3.29,6.63,6.63,0,0,0-2.36-2.23,6.43,6.43,0,0,0-3.19-.8,6.3,6.3,0,0,0-3.14.8,6.52,6.52,0,0,0-2.35,2.23A6.92,6.92,0,0,0,261.18,245.28Z"/><path class="cls-1" d="M291.22,239.55a8,8,0,0,0-4.31,1.24,6.48,6.48,0,0,0-2.65,3.31V256H281v-19.2h3v4.37a9,9,0,0,1,2.65-3.24,6.55,6.55,0,0,1,3.46-1.39h.62a2,2,0,0,1,.45,0Z"/><path class="cls-1" d="M104.82,301.27l1,.09a6.31,6.31,0,0,0,.74.06,1.48,1.48,0,0,0,1-.41,4.93,4.93,0,0,0,1-1.56c.36-.77.82-1.91,1.39-3.4l-8.18-19.24h3.45l6.51,16,5.88-16h3.22l-9.4,24.28a5.66,5.66,0,0,1-1,1.61,4.63,4.63,0,0,1-1.65,1.2,6,6,0,0,1-2.4.44,5.27,5.27,0,0,1-.68,0,6.12,6.12,0,0,1-.87-.15Z"/><path class="cls-1" d="M131.83,296.38a9.56,9.56,0,0,1-4-.79,9.18,9.18,0,0,1-3.07-2.16,9.74,9.74,0,0,1-2-3.18,10.52,10.52,0,0,1,0-7.6,9.74,9.74,0,0,1,2-3.18,9.39,9.39,0,0,1,3.08-2.17,9.81,9.81,0,0,1,4-.79,9.71,9.71,0,0,1,3.95.79,9.67,9.67,0,0,1,5.11,5.35,10.66,10.66,0,0,1,0,7.6,9.74,9.74,0,0,1-2,3.18,9.16,9.16,0,0,1-3.09,2.16A9.67,9.67,0,0,1,131.83,296.38Zm-6.41-9.88a7.42,7.42,0,0,0,.87,3.59,6.73,6.73,0,0,0,2.32,2.55,6,6,0,0,0,6.45,0,6.92,6.92,0,0,0,2.33-2.58,7.55,7.55,0,0,0,.87-3.61,7.45,7.45,0,0,0-.87-3.59,6.86,6.86,0,0,0-2.33-2.56,5.74,5.74,0,0,0-3.23-.95,5.6,5.6,0,0,0-3.22,1,7,7,0,0,0-2.32,2.58A7.48,7.48,0,0,0,125.42,286.5Z"/><path class="cls-1" d="M145.37,288.33V276.81h3.25v10.88a7.67,7.67,0,0,0,1,4.41,3.51,3.51,0,0,0,3.07,1.47,6.05,6.05,0,0,0,2.57-.57,7.15,7.15,0,0,0,2.24-1.63,7.47,7.47,0,0,0,1.55-2.53v-12h3.26v15.51a1.33,1.33,0,0,0,.24.87,1.16,1.16,0,0,0,.8.31V296l-.87.1h-.61a2.3,2.3,0,0,1-1.59-.57,1.91,1.91,0,0,1-.71-1.41l-.07-2.25a8.86,8.86,0,0,1-3.39,3.32,9.46,9.46,0,0,1-4.64,1.17,5.42,5.42,0,0,1-4.59-2A9.87,9.87,0,0,1,145.37,288.33Z"/><path class="cls-1" d="M178,279.55a8,8,0,0,0-4.31,1.24,6.46,6.46,0,0,0-2.64,3.31V296h-3.26v-19.2h3v4.37a9,9,0,0,1,2.65-3.24,6.58,6.58,0,0,1,3.46-1.39h.63a1.89,1.89,0,0,1,.44,0Z"/><path class="cls-1" d="M200.13,296.38a7.72,7.72,0,0,1-4.22-1.17,8.94,8.94,0,0,1-2.92-3v11.66h-3.26V276.81h2.89v3.63a8.84,8.84,0,0,1,3-2.84,7.9,7.9,0,0,1,4-1.09,8.25,8.25,0,0,1,3.66.81,9.17,9.17,0,0,1,2.89,2.21,10.7,10.7,0,0,1,1.9,3.17,10.23,10.23,0,0,1,.68,3.73,11.4,11.4,0,0,1-1.09,5,8.91,8.91,0,0,1-3.05,3.61A7.76,7.76,0,0,1,200.13,296.38Zm-1-2.81a5.64,5.64,0,0,0,2.61-.6,6.64,6.64,0,0,0,2-1.61,7.32,7.32,0,0,0,1.27-2.29,8,8,0,0,0,.44-2.64,7.24,7.24,0,0,0-1.9-5,6.74,6.74,0,0,0-2.11-1.56,6.14,6.14,0,0,0-2.61-.56,5.54,5.54,0,0,0-1.83.33,7.24,7.24,0,0,0-3.24,2.3,4,4,0,0,0-.77,1.64v5.47a8.46,8.46,0,0,0,1.48,2.27,7.08,7.08,0,0,0,2.14,1.63A5.66,5.66,0,0,0,199.13,293.57Z"/><path class="cls-1" d="M223,279.55a8,8,0,0,0-4.31,1.24A6.51,6.51,0,0,0,216,284.1V296h-3.26v-19.2h3v4.37a8.9,8.9,0,0,1,2.64-3.24,6.58,6.58,0,0,1,3.46-1.39h.63a1.89,1.89,0,0,1,.44,0Z"/><path class="cls-1" d="M234.2,296.38a9.62,9.62,0,0,1-4-.79,9.39,9.39,0,0,1-3.07-2.16,9.71,9.71,0,0,1-2-3.18,10.52,10.52,0,0,1,0-7.6,9.71,9.71,0,0,1,2-3.18,9.54,9.54,0,0,1,3.09-2.17,10.27,10.27,0,0,1,7.9,0,9.67,9.67,0,0,1,5.11,5.35,10.66,10.66,0,0,1,0,7.6,9.91,9.91,0,0,1-2,3.18,9.16,9.16,0,0,1-3.09,2.16A9.69,9.69,0,0,1,234.2,296.38Zm-6.4-9.88a7.42,7.42,0,0,0,.87,3.59,6.73,6.73,0,0,0,2.32,2.55,6,6,0,0,0,6.45,0,6.92,6.92,0,0,0,2.33-2.58,7.55,7.55,0,0,0,.87-3.61,7.45,7.45,0,0,0-.87-3.59,6.86,6.86,0,0,0-2.33-2.56,5.75,5.75,0,0,0-3.24-.95,5.59,5.59,0,0,0-3.21,1,7,7,0,0,0-2.32,2.58A7.48,7.48,0,0,0,227.8,286.5Z"/><path class="cls-1" d="M248.63,279.25H246V276.7h2.62v-.41a8.77,8.77,0,0,1,.45-2.79,7.73,7.73,0,0,1,1.33-2.46,6.31,6.31,0,0,1,2.22-1.76,7.17,7.17,0,0,1,3.15-.65,9.87,9.87,0,0,1,2.51.3,10.44,10.44,0,0,1,2,.74,9,9,0,0,1,1.5.89l-1.4,2.4a6,6,0,0,0-1.91-1.07,7.27,7.27,0,0,0-2.57-.45,3.64,3.64,0,0,0-2.31.71,4.08,4.08,0,0,0-1.33,1.79,6,6,0,0,0-.43,2.24v.52h9.88V296h-3.26V279.25h-6.62V296h-3.26Z"/><path class="cls-1" d="M267.1,269h3.25v22.12c0,1.06.15,1.72.45,2a1.58,1.58,0,0,0,1.07.37,6.45,6.45,0,0,0,1.48-.17,8.12,8.12,0,0,0,1.18-.35l.52,2.67a10.84,10.84,0,0,1-1.92.55,10,10,0,0,1-2,.22,4.09,4.09,0,0,1-3-1.07,4,4,0,0,1-1.09-3Z"/><path class="cls-1" d="M286.15,296.38a9.75,9.75,0,0,1-4-.79,9.41,9.41,0,0,1-3.1-2.16,9.84,9.84,0,0,1-2-3.18,10.18,10.18,0,0,1-.72-3.82,10,10,0,0,1,1.26-5,9.67,9.67,0,0,1,8.62-5,9.28,9.28,0,0,1,5.09,1.38,9.67,9.67,0,0,1,3.36,3.6,9.89,9.89,0,0,1,1.21,4.8c0,.25,0,.49,0,.72a2.88,2.88,0,0,1-.06.53h-16a7.15,7.15,0,0,0,1.06,3.31,6.55,6.55,0,0,0,2.35,2.27,6.12,6.12,0,0,0,3.1.82,6.62,6.62,0,0,0,3.35-.89,4.77,4.77,0,0,0,2.17-2.33l2.81.78a7.4,7.4,0,0,1-1.87,2.52,9,9,0,0,1-2.92,1.73A10.37,10.37,0,0,1,286.15,296.38Zm-6.51-11.1h13.17a6.93,6.93,0,0,0-1.07-3.29,6.74,6.74,0,0,0-2.37-2.23,6.66,6.66,0,0,0-6.33,0A6.49,6.49,0,0,0,280.7,282,7,7,0,0,0,279.64,285.28Z"/></g></g></svg>