<svg xmlns="http://www.w3.org/2000/svg" viewBox="0 0 73.13 73.13"><defs><style>.cls-1{fill:#f0f;}.cls-2{fill:#fff;}</style></defs><g id="Calque_2" data-name="Calque 2"><g id="ads"><rect class="cls-1" width="73.13" height="73.13" rx="9.92"/><path class="cls-2" d="M56.43,9.24c-5.33,0-10.66,0-16,0q-12,0-24,0A7.64,7.64,0,0,0,8.73,17q0,19.59,0,39.2a6.91,6.91,0,0,0,.07,1.2,7.77,7.77,0,0,0,7.76,6.52q9.46,0,18.92,0l.58,0c0-.2,0-.37,0-.54,0-5.87,0-11.73.08-17.6,0-.52-.19-.64-.67-.63-1.41,0-2.83,0-4.24,0-.87,0-1.27-.48-1.28-1.35,0-1.79,0-3.59-.05-5.39,0-1.39.35-1.77,1.75-1.78,1.24,0,2.48,0,3.73,0,.5,0,.76-.12.69-.67a3.62,3.62,0,0,1,0-.57c.07-2.31,0-4.64.24-6.92a9.17,9.17,0,0,1,8.78-8.18c2.11-.11,4.24-.09,6.35-.11,1,0,1.5.48,1.51,1.52v4.47c0,1.14-.46,1.6-1.59,1.61s-2.37,0-3.55,0a2.9,2.9,0,0,0-3.09,2.36,8.51,8.51,0,0,0-.12,1.42c0,1.44,0,2.87,0,4.3,0,.74,0,.74.77.74,2.1,0,4.2,0,6.3,0,1.2,0,1.65.58,1.49,1.75-.23,1.74-.45,3.48-.64,5.22-.14,1.19-.48,1.55-1.67,1.55H45.43c-.78,0-.78,0-.78.79q0,8.65,0,17.31v.7h.84c3,0,6,0,9.05,0,1,0,2,0,3-.1a7.67,7.67,0,0,0,6.84-7.57q0-19.66,0-39.32a7.06,7.06,0,0,0-.75-3.26A7.62,7.62,0,0,0,56.43,9.24Z"/></g></g></svg>